<svg viewBox="0 0 1200 600" xmlns="http://www.w3.org/2000/svg">
  <defs>
    <linearGradient id="bg3-red" x1="0%" y1="0%" x2="100%" y2="100%">
      <stop offset="0%" style="stop-color:#DC3545;stop-opacity:1" />
      <stop offset="100%" style="stop-color:#8B1E28;stop-opacity:1" />
    </linearGradient>
  </defs>
  
  <rect width="1200" height="600" fill="url(#bg3-red)"/>
  
  <!-- Microscope -->
  <g transform="translate(200, 150)">
    <rect x="40" y="200" width="120" height="15" fill="#555" rx="2"/>
    <path d="M 100 200 L 100 80" stroke="#666" stroke-width="8" fill="none"/>
    <circle cx="100" cy="70" r="25" fill="#888"/>
    <circle cx="100" cy="70" r="20" fill="#10B981" opacity="0.7"/>
    <circle cx="100" cy="40" r="12" fill="#FFD93D"/>
    <circle cx="100" cy="100" r="10" fill="#10B981"/>
    <rect x="60" y="180" width="80" height="20" fill="#777"/>
    <rect x="65" y="185" width="70" height="10" fill="#4ECDC4" opacity="0.8"/>
    <circle cx="150" cy="120" r="10" fill="#FFD93D"/>
    <circle cx="150" cy="140" r="8" fill="#10B981"/>
  </g>
  
  <!-- DNA Double Helix -->
  <g transform="translate(550, 120)">
    <line x1="0" y1="0" x2="0" y2="300" stroke="#10B981" stroke-width="2" opacity="0.5"/>
    <path d="M -40 0 Q -60 30 -40 60 Q -20 90 -40 120 Q -60 150 -40 180 Q -20 210 -40 240 Q -60 270 -40 300" stroke="#FFD93D" stroke-width="4" fill="none"/>
    <path d="M 40 0 Q 60 30 40 60 Q 20 90 40 120 Q 60 150 40 180 Q 20 210 40 240 Q 60 270 40 300" stroke="#10B981" stroke-width="4" fill="none"/>
    <line x1="-40" y1="30" x2="40" y2="30" stroke="#10B981" stroke-width="2" opacity="0.6"/>
    <line x1="-40" y1="90" x2="40" y2="90" stroke="#FFD93D" stroke-width="2" opacity="0.6"/>
    <line x1="-40" y1="150" x2="40" y2="150" stroke="#10B981" stroke-width="2" opacity="0.6"/>
    <line x1="-40" y1="210" x2="40" y2="210" stroke="#FFD93D" stroke-width="2" opacity="0.6"/>
    <line x1="-40" y1="270" x2="40" y2="270" stroke="#10B981" stroke-width="2" opacity="0.6"/>
    <circle cx="-40" cy="30" r="5" fill="#FFD93D"/>
    <circle cx="40" cy="30" r="5" fill="#10B981"/>
    <circle cx="-40" cy="90" r="5" fill="#10B981"/>
    <circle cx="40" cy="90" r="5" fill="#FFD93D"/>
    <circle cx="-40" cy="150" r="5" fill="#FFD93D"/>
    <circle cx="40" cy="150" r="5" fill="#10B981"/>
    <circle cx="-40" cy="210" r="5" fill="#10B981"/>
    <circle cx="40" cy="210" r="5" fill="#FFD93D"/>
    <circle cx="-40" cy="270" r="5" fill="#FFD93D"/>
    <circle cx="40" cy="270" r="5" fill="#10B981"/>
  </g>
  
  <!-- Test Tubes -->
  <g transform="translate(900, 150)">
    <rect x="20" y="80" width="30" height="120" fill="none" stroke="#10B981" stroke-width="3" rx="5"/>
    <rect x="22" y="120" width="26" height="40" fill="#FFD93D" opacity="0.7"/>
    <rect x="15" y="70" width="40" height="10" fill="#666" rx="2"/>
    <rect x="70" y="60" width="30" height="140" fill="none" stroke="#FFD93D" stroke-width="3" rx="5"/>
    <rect x="72" y="100" width="26" height="60" fill="#10B981" opacity="0.6"/>
    <rect x="65" y="50" width="40" height="10" fill="#666" rx="2"/>
    <rect x="120" y="90" width="30" height="110" fill="none" stroke="#10B981" stroke-width="3" rx="5"/>
    <rect x="122" y="140" width="26" height="30" fill="#FFD93D" opacity="0.7"/>
    <rect x="115" y="80" width="40" height="10" fill="#666" rx="2"/>
    <rect x="10" y="210" width="150" height="8" fill="#666" rx="2"/>
  </g>
  
  <text x="600" y="480" font-size="48" font-weight="bold" fill="white">Research &amp; Innovation</text>
  <text x="600" y="530" font-size="24" fill="rgba(255,255,255,0.9)">Advanced Medical Laboratory</text>
</svg>
